HIERARCHY
ROOT Hips
{
	OFFSET -0.001795 -0.223333 0.028219
	CHANNELS 6 Xposition Yposition Zposition Zrotation Yrotation Xrotation 
	JOINT LeftUpLeg
	{
		OFFSET 0.069520 -0.091406 -0.006815
		CHANNELS 3 Zrotation Yrotation Xrotation
		JOINT LeftLeg
		{
			OFFSET 0.034277 -0.375199 -0.004496
			CHANNELS 3 Zrotation Yrotation Xrotation
			JOINT LeftFoot
			{
				OFFSET -0.013596 -0.397961 -0.043693
				CHANNELS 3 Zrotation Yrotation Xrotation
				JOINT LeftToe
				{
					OFFSET 0.026358 -0.055791 0.119288
					CHANNELS 3 Zrotation Yrotation Xrotation
					End Site
					{
						OFFSET 0.000000 0.000000 0.000000
					}
				}
			}
		}
	}
	JOINT RightUpLeg
	{
		OFFSET -0.067670 -0.090522 -0.004320
		CHANNELS 3 Zrotation Yrotation Xrotation
		JOINT RightLeg
		{
			OFFSET -0.038290 -0.382569 -0.008850
			CHANNELS 3 Zrotation Yrotation Xrotation
			JOINT RightFoot
			{
				OFFSET 0.015774 -0.398415 -0.042312
				CHANNELS 3 Zrotation Yrotation Xrotation
				JOINT RightToe
				{
					OFFSET -0.025372 -0.048144 0.123348
					CHANNELS 3 Zrotation Yrotation Xrotation
					End Site
					{
						OFFSET 0.000000 0.000000 0.000000
					}
				}
			}
		}
	}
	JOINT Spine
	{
		OFFSET -0.002533 0.108963 -0.026696
		CHANNELS 3 Zrotation Yrotation Xrotation
		JOINT Spine1
		{
			OFFSET 0.005487 0.135180 0.001092
			CHANNELS 3 Zrotation Yrotation Xrotation
			JOINT Spine2
			{
				OFFSET 0.001457 0.052922 0.025425
				CHANNELS 3 Zrotation Yrotation Xrotation
				JOINT Neck
				{
					OFFSET -0.002778 0.213870 -0.042857
					CHANNELS 3 Zrotation Yrotation Xrotation
					JOINT Head
					{
						OFFSET 0.005152 0.064970 0.051349
						CHANNELS 3 Zrotation Yrotation Xrotation
						End Site
						{
							OFFSET 0.000000 0.000000 0.000000
						}
					}
				}
				JOINT LeftShoulder
				{
					OFFSET 0.078845 0.121749 -0.034090
					CHANNELS 3 Zrotation Yrotation Xrotation
					JOINT LeftArm
					{
						OFFSET 0.090977 0.030469 -0.008868
						CHANNELS 3 Zrotation Yrotation Xrotation
						JOINT LeftForeArm
						{
							OFFSET 0.259612 -0.012772 -0.027456
							CHANNELS 3 Zrotation Yrotation Xrotation
							JOINT LeftHand
							{
								OFFSET 0.249234 0.008986 -0.001171
								CHANNELS 3 Zrotation Yrotation Xrotation
								End Site
								{
									OFFSET 0.000000 0.000000 0.000000
								}
							}
						}
					}
				}
				JOINT RightShoulder
				{
					OFFSET -0.081759 0.118833 -0.038615
					CHANNELS 3 Zrotation Yrotation Xrotation
					JOINT RightArm
					{
						OFFSET -0.096012 0.032551 -0.009143
						CHANNELS 3 Zrotation Yrotation Xrotation
						JOINT RightForeArm
						{
							OFFSET -0.253742 -0.013329 -0.021401
							CHANNELS 3 Zrotation Yrotation Xrotation
							JOINT RightHand
							{
								OFFSET -0.255298 0.007772 -0.005559
								CHANNELS 3 Zrotation Yrotation Xrotation
								End Site
								{
									OFFSET 0.000000 0.000000 0.000000
								}
							}
						}
					}
				}
			}
		}
	}
}
MOTION
Frames: 11
Frame Time: 0.050000
0.000000 0.887644 0.000000 3.227097 1.406231 35.273663 8.628243 -1.668591 -51.646723 -3.191359 0.179467 24.915024 11.417486 23.742187 29.637274 0.000000 0.000000 0.000000 -16.498267 -2.261770 -56.148734 6.356467 -1.390769 24.849039 -3.263184 -10.545585 6.872177 0.000000 0.000000 0.000000 6.893686 -7.098018 50.230623 0.886013 -0.032921 -10.613752 4.192076 10.893594 17.402271 5.841121 -0.672204 -20.971252 0.000000 0.000000 0.000000 -3.259357 0.782923 -1.765715 -57.372738 -0.741510 -7.925676 -96.842102 -49.297730 54.363034 0.000000 0.000000 0.000000 -9.046223 0.417622 0.152731 50.722975 19.433262 3.931072 -119.608253 65.915052 -79.304946 0.000000 0.000000 0.000000 
0.000581 0.887104 0.001776 2.427825 0.963008 36.142004 10.204572 -0.891409 -51.385399 -3.793991 0.441879 25.486391 7.525507 18.624310 22.030942 0.000000 0.000000 0.000000 -15.521947 -1.695671 -57.340455 5.897134 -1.182291 24.774142 -3.420877 -11.182644 7.650430 0.000000 0.000000 0.000000 6.278740 -6.599138 50.433829 0.731056 -0.028999 -9.160740 4.362763 10.279256 16.090699 -0.033538 1.995142 -17.457784 0.000000 0.000000 0.000000 -4.752939 1.616338 -2.380975 -51.709950 3.332329 -8.210864 -107.356839 -52.653347 67.657870 0.000000 0.000000 0.000000 -7.233945 1.311340 0.636380 47.262729 21.647274 3.995450 -117.456533 59.856200 -69.860205 0.000000 0.000000 0.000000 
0.001077 0.885130 0.003021 2.123399 0.256921 35.380929 10.325587 -0.635222 -50.462836 -2.865680 0.179293 25.197141 5.990763 16.484768 23.629543 0.000000 0.000000 0.000000 -15.695625 -1.534914 -57.483431 6.621983 -1.459555 26.967468 -3.064765 -10.020652 5.708281 0.000000 0.000000 0.000000 5.425787 -6.051101 52.485480 0.055613 0.207716 -9.471364 4.282204 11.025776 15.910089 2.500307 0.350334 -14.840514 0.000000 0.000000 0.000000 0.423731 1.937693 -1.391755 -55.720701 3.188466 -9.381343 -101.807849 -53.200407 62.666679 0.000000 0.000000 0.000000 -6.134094 2.263481 1.033202 42.282666 22.589082 3.414939 -114.845873 61.772901 -69.436980 0.000000 0.000000 0.000000 
0.001622 0.886455 0.004322 2.114380 1.370149 35.971681 10.607400 -0.811417 -51.755787 -2.873676 0.114272 25.985350 5.411211 16.011643 24.501246 0.000000 0.000000 0.000000 -15.878134 -2.069596 -58.325943 6.654855 -1.622933 28.447110 -2.472640 -8.579182 6.077907 0.000000 0.000000 0.000000 5.367612 -6.380486 52.437853 -0.831150 0.485673 -7.797278 4.443992 9.955747 14.393189 -1.466721 2.409541 -13.348280 0.000000 0.000000 0.000000 0.911398 3.812248 -1.935069 -53.262575 3.888287 -8.979915 -107.370784 -53.356942 68.604245 0.000000 0.000000 0.000000 -7.510954 2.969049 1.227372 41.185523 22.324523 3.241071 -113.346255 61.446773 -68.166469 0.000000 0.000000 0.000000 
0.002333 0.885841 0.005569 2.317078 2.553752 36.210326 10.242342 -1.293136 -52.840643 -2.844071 0.020902 25.785705 7.937803 19.845482 28.855849 0.000000 0.000000 0.000000 -16.075938 -2.602496 -58.205979 6.657720 -1.749756 29.060837 -2.345864 -7.927181 5.250051 0.000000 0.000000 0.000000 5.192933 -6.682107 52.796941 -1.101657 0.598282 -8.295359 4.598230 9.938524 14.332720 -2.808273 3.034588 -10.899922 0.000000 0.000000 0.000000 0.137435 2.233233 -1.537708 -51.839273 2.630826 -8.111745 -111.128362 -55.603950 74.909636 0.000000 0.000000 0.000000 -7.996280 3.578362 1.400390 38.514243 22.262521 2.793959 -109.034809 64.713892 -67.731751 0.000000 0.000000 0.000000 
0.003203 0.884598 0.006851 2.286640 4.039683 36.179181 10.571954 -1.581289 -54.112760 -3.584418 0.176501 26.950502 10.067526 22.676311 31.143108 0.000000 0.000000 0.000000 -16.089940 -3.194730 -58.683119 6.860414 -2.013616 30.435624 -2.226301 -7.785460 6.381266 0.000000 0.000000 0.000000 5.443684 -7.260035 52.714586 -1.498611 0.736721 -7.796338 4.934149 10.180526 13.174451 -3.415809 3.226856 -8.647232 0.000000 0.000000 0.000000 -2.265131 1.296274 -1.751068 -48.726542 1.459430 -6.833331 -110.731302 -56.800571 75.538897 0.000000 0.000000 0.000000 -8.617483 4.186625 1.549107 36.421717 20.763676 2.198222 -110.393822 66.503517 -71.069181 0.000000 0.000000 0.000000 
0.004009 0.882760 0.008277 1.925069 4.968739 35.696890 10.770859 -1.766206 -55.399032 -3.738897 0.158621 28.688868 13.065876 25.875366 35.939600 0.000000 0.000000 0.000000 -15.977203 -3.422206 -58.325477 7.340206 -2.333398 31.277720 -2.131425 -7.376084 6.009108 0.000000 0.000000 0.000000 4.709896 -7.113090 53.143807 -1.580828 0.778616 -8.096695 5.075700 10.462613 13.329937 -3.609182 3.389618 -8.600666 0.000000 0.000000 0.000000 -2.257017 0.490213 -1.478901 -48.702492 0.258656 -6.423533 -114.017643 -58.946169 81.302159 0.000000 0.000000 0.000000 -8.475819 4.964767 1.790201 35.577652 20.554126 2.029023 -107.451417 67.350101 -68.971062 0.000000 0.000000 0.000000 
0.005049 0.880664 0.009594 1.176299 6.047099 35.064042 11.731689 -1.635829 -56.544928 -4.721192 0.464101 30.490208 16.680574 29.085116 40.193956 0.000000 0.000000 0.000000 -15.242135 -3.369825 -58.254737 7.585248 -2.597678 32.624141 -2.256409 -7.591594 6.037691 0.000000 0.000000 0.000000 4.086966 -7.019600 53.401646 -1.959064 0.914620 -7.901415 5.278430 10.888618 12.449114 -4.280364 3.720566 -7.444295 0.000000 0.000000 0.000000 -4.429287 -0.514632 -1.624672 -46.264550 -0.335877 -5.610629 -114.659477 -60.586700 83.558169 0.000000 0.000000 0.000000 -6.702254 5.977030 2.322101 33.805200 19.098351 1.373688 -107.284144 68.205689 -69.738924 0.000000 0.000000 0.000000 
0.006145 0.879046 0.011109 0.627236 7.108724 33.919371 11.995556 -1.804637 -56.693055 -4.800871 0.406460 31.968044 19.122726 31.002011 42.558321 0.000000 0.000000 0.000000 -14.650728 -3.331811 -57.395698 8.002225 -2.972913 33.927190 -2.674813 -8.270969 5.245521 0.000000 0.000000 0.000000 3.574406 -6.902577 53.096913 -2.350910 1.064869 -8.105945 5.557286 10.380671 12.606505 -5.170529 4.328828 -7.635731 0.000000 0.000000 0.000000 -5.781007 -0.697585 -1.804168 -44.696248 -0.677518 -5.201555 -114.743872 -61.876668 85.292919 0.000000 0.000000 0.000000 -6.694589 5.920532 2.242944 33.926505 17.655426 1.037520 -106.767568 69.165567 -70.685251 0.000000 0.000000 0.000000 
0.007610 0.877846 0.012443 -0.362150 7.377381 32.544641 12.609516 -1.538590 -56.676345 -5.585683 0.714227 34.009614 22.592621 33.393751 44.441921 0.000000 0.000000 0.000000 -13.775130 -2.865781 -56.783021 8.255518 -3.191578 35.147213 -2.765192 -8.507283 5.451213 0.000000 0.000000 0.000000 2.473686 -6.147483 52.705143 -2.634419 1.170158 -7.788235 5.527194 10.414856 12.518935 -5.920322 4.873524 -8.203786 0.000000 0.000000 0.000000 -5.739390 -0.679666 -1.784179 -44.031693 -1.372101 -4.904804 -114.939042 -62.539328 86.162588 0.000000 0.000000 0.000000 -5.203059 6.258024 2.502513 33.163896 16.063988 0.473839 -107.611916 69.264660 -71.776087 0.000000 0.000000 0.000000 
0.009729 0.877944 0.013678 -0.514755 8.421003 30.974654 12.634500 -1.814069 -55.957827 -5.803027 0.678010 34.922724 23.257879 33.652760 45.878892 0.000000 0.000000 0.000000 -13.306639 -2.850909 -55.289496 7.975972 -3.271880 36.068793 -3.065595 -9.043709 5.338245 0.000000 0.000000 0.000000 2.032284 -6.013375 51.964842 -3.418649 1.456624 -7.191520 5.395694 9.032885 11.840224 -7.225988 5.667268 -7.818488 0.000000 0.000000 0.000000 -6.442032 -0.777544 -1.718194 -43.262084 -1.500435 -4.693841 -112.982811 -63.025543 85.042020 0.000000 0.000000 0.000000 -4.519313 5.965781 2.412030 32.845776 14.770679 0.073804 -112.231113 71.279823 -79.321284 0.000000 0.000000 0.000000 
